<?xml version="1.0" standalone="no"?>
<!DOCTYPE svg PUBLIC "-//W3C//DTD SVG 20010904//EN"
 "http://www.w3.org/TR/2001/REC-SVG-20010904/DTD/svg10.dtd">
<svg version="1.0" xmlns="http://www.w3.org/2000/svg"
 width="1280.000000pt" height="1057.000000pt" viewBox="0 0 1280.000000 1057.000000"
 preserveAspectRatio="xMidYMid meet">
<g transform="translate(0.000000,1057.000000) scale(0.100000,-0.100000)"
fill="#000000" stroke="none">
<path d="M5679 10565 c-3 -2 -68 -14 -145 -25 -220 -32 -246 -42 -334 -125
-30 -29 -81 -65 -113 -80 -64 -30 -81 -53 -52 -69 152 -89 287 -197 269 -215
-13 -14 -83 22 -222 112 -95 61 -111 64 -112 17 -2 -61 14 -211 21 -216 18
-11 8 -59 -16 -84 -17 -18 -29 -46 -36 -89 -14 -75 -39 -108 -94 -123 -59 -16
-90 -13 -185 17 -69 22 -91 35 -121 68 l-37 40 -109 -7 c-59 -4 -125 -12 -146
-18 -32 -10 -39 -9 -51 7 -10 14 -20 16 -48 11 -64 -12 -155 -65 -203 -118
-54 -60 -144 -235 -152 -296 -5 -39 -2 -47 39 -100 25 -31 53 -71 62 -89 9
-18 27 -43 41 -57 26 -26 31 -51 16 -74 -12 -19 -45 -18 -83 2 l-35 19 -74
-49 c-49 -33 -153 -128 -314 -289 l-240 -240 -105 -189 c-57 -104 -143 -248
-190 -320 -78 -120 -85 -135 -85 -181 0 -27 4 -65 8 -83 8 -29 5 -35 -33 -69
-53 -48 -80 -92 -80 -132 0 -42 -12 -62 -81 -143 -61 -71 -80 -117 -126 -303
-23 -94 -22 -320 1 -425 45 -202 100 -310 223 -437 90 -91 149 -130 254 -168
144 -53 392 -235 362 -266 -7 -7 -63 -21 -125 -31 -62 -10 -138 -23 -168 -29
-52 -11 -53 -12 -26 -20 16 -5 168 -11 338 -15 338 -8 341 -8 318 -63 -6 -16
-20 -37 -31 -47 -10 -9 -19 -27 -19 -39 0 -28 -21 -47 -93 -80 -32 -15 -72
-44 -90 -65 l-32 -37 -111 -7 c-240 -14 -539 -65 -716 -122 l-107 -35 -203 65
c-224 72 -258 81 -258 72 0 -4 9 -25 21 -47 28 -56 70 -73 404 -164 365 -99
441 -122 495 -150 25 -13 53 -26 63 -29 53 -16 8 -84 -73 -111 -41 -14 -50
-22 -70 -66 -33 -70 -39 -73 -100 -49 -28 11 -102 34 -163 50 -62 16 -236 68
-387 115 -450 141 -655 195 -745 195 -44 0 -65 26 -65 83 0 46 -1 47 -49 72
-57 28 -130 47 -145 37 -6 -4 -31 -14 -56 -22 l-45 -15 -6 -70 c-3 -38 -13
-88 -23 -110 -13 -29 -17 -57 -14 -108 3 -61 7 -72 31 -93 44 -37 100 -48 257
-48 129 -1 150 2 194 22 27 12 57 22 68 22 16 0 844 -233 1193 -337 66 -19
130 -44 141 -55 12 -11 36 -56 53 -101 17 -45 37 -92 46 -104 18 -25 71 -46
289 -114 l161 -49 25 20 c55 45 123 69 225 78 99 10 100 9 123 -15 12 -13 22
-31 22 -39 0 -8 -40 -34 -96 -61 -84 -41 -95 -49 -90 -68 8 -30 -9 -42 -144
-107 -63 -31 -123 -65 -133 -76 -28 -30 -46 -90 -47 -149 0 -75 12 -99 52
-106 19 -3 57 -19 85 -35 72 -43 132 -61 221 -69 92 -8 112 -23 112 -87 0 -24
-6 -48 -14 -55 -26 -21 -132 -52 -299 -86 -154 -31 -181 -39 -315 -103 -81
-38 -201 -86 -267 -107 -121 -37 -358 -126 -910 -340 -407 -158 -493 -187
-527 -180 -32 8 -36 29 -11 58 14 15 18 35 16 95 -3 92 -16 113 -58 86 -26
-17 -29 -33 -11 -76 12 -26 -23 -39 -69 -27 -27 8 -45 7 -66 -1 -41 -17 -96
-82 -108 -127 -16 -61 -17 -185 -1 -210 12 -18 11 -25 -3 -47 -17 -25 -17 -27
2 -54 14 -19 21 -46 23 -92 l3 -65 -35 -5 c-29 -4 -36 -10 -38 -32 -3 -23 2
-30 24 -38 24 -9 26 -14 19 -43 -5 -17 -9 -52 -9 -77 -1 -39 3 -46 33 -67 19
-13 41 -23 49 -23 20 0 95 77 90 92 -2 7 -26 24 -53 38 -58 31 -74 52 -56 74
15 18 68 21 121 6 47 -13 78 -74 72 -143 -4 -44 -7 -49 -51 -74 -101 -58 -131
-83 -131 -108 0 -37 -28 -31 -75 15 l-41 41 -55 -12 c-61 -13 -96 -36 -39 -25
19 3 47 9 62 12 66 15 36 -56 -92 -218 -80 -101 -98 -115 -165 -127 -89 -17
-113 27 -53 95 28 32 30 36 11 30 -40 -13 -58 65 -29 123 21 39 91 100 143
123 36 16 42 22 33 33 -7 8 -9 23 -5 35 9 30 0 25 -51 -26 -35 -34 -53 -44
-73 -42 -24 3 -26 7 -25 48 0 25 8 61 18 80 21 44 53 100 59 106 3 3 29 -8 59
-25 83 -47 90 -36 20 28 l-63 58 21 62 c15 46 19 74 14 111 -6 46 -5 50 19 59
13 5 34 23 47 40 20 30 50 42 50 21 0 -5 8 -10 18 -10 20 0 42 21 62 59 11 21
10 26 -10 41 l-23 17 22 64 c11 34 21 82 21 105 0 40 2 43 53 72 29 17 67 47
83 67 66 82 70 84 108 78 20 -3 56 0 81 7 39 11 48 10 69 -4 14 -9 32 -16 41
-16 23 0 87 35 109 59 11 12 23 21 27 21 17 0 436 224 489 261 31 22 63 39 72
39 9 0 61 21 115 46 252 118 574 248 781 315 56 18 102 38 102 44 0 13 -107
117 -170 167 -57 44 -196 126 -275 160 -161 71 -416 106 -638 88 -140 -12
-213 -28 -322 -74 -89 -37 -228 -87 -290 -104 -23 -7 -60 -28 -83 -48 -23 -19
-57 -40 -75 -45 -17 -5 -57 -29 -87 -55 -30 -25 -73 -54 -96 -64 -23 -10 -58
-38 -78 -63 -20 -25 -51 -50 -68 -56 -41 -15 -67 -38 -83 -77 -8 -19 -35 -46
-71 -70 -37 -24 -66 -52 -77 -75 -13 -27 -29 -41 -61 -53 -43 -17 -61 -40 -81
-104 -3 -12 -23 -31 -43 -41 -60 -31 -86 -66 -87 -114 0 -38 -3 -43 -37 -59
-36 -17 -42 -27 -50 -83 -2 -11 -17 -26 -33 -34 -71 -33 -110 -92 -102 -154 5
-36 2 -44 -27 -71 -18 -17 -45 -39 -59 -49 -17 -11 -28 -30 -32 -55 -4 -20
-17 -60 -31 -87 -15 -31 -24 -68 -24 -96 0 -38 -5 -50 -34 -78 -19 -18 -42
-50 -51 -71 -17 -37 -17 -39 4 -68 31 -45 27 -68 -19 -97 -48 -30 -54 -51 -47
-161 4 -71 2 -90 -17 -131 -12 -26 -28 -67 -36 -91 l-13 -43 38 -39 38 -39
-27 -31 c-21 -26 -26 -42 -26 -86 0 -52 2 -56 35 -75 42 -25 44 -47 9 -88 -25
-30 -25 -32 -13 -88 13 -55 29 -81 64 -100 13 -8 17 -27 19 -94 3 -106 32
-168 99 -216 37 -25 47 -39 52 -70 10 -55 49 -109 95 -133 24 -12 45 -33 56
-55 25 -53 90 -105 131 -105 28 0 37 -6 51 -32 9 -18 29 -45 45 -61 25 -27 31
-28 78 -22 50 7 50 7 104 -44 62 -58 85 -63 136 -26 l34 26 20 -24 c11 -13 28
-34 37 -46 22 -26 54 -27 93 -1 42 27 69 25 108 -10 42 -36 54 -37 117 -5 39
20 64 25 120 25 51 0 82 6 109 20 21 10 69 27 107 36 89 21 346 146 402 195
24 21 75 50 114 65 45 17 90 44 123 73 28 25 66 54 83 63 17 9 47 39 67 67 26
36 48 54 81 67 40 15 49 25 72 72 26 56 69 92 108 92 27 0 52 29 65 74 7 25
22 44 50 63 31 20 40 34 45 65 8 49 38 86 83 105 49 20 81 52 81 80 0 40 25
87 64 118 87 70 96 81 96 123 0 35 4 43 34 60 30 18 35 27 41 69 13 95 16 104
50 124 38 23 55 62 55 125 0 53 15 89 47 110 13 8 32 34 42 57 10 23 27 49 37
59 21 18 566 324 682 382 39 20 82 36 95 36 16 0 52 -30 120 -100 104 -108
154 -139 223 -140 56 0 150 30 270 86 l99 47 150 8 c234 13 416 29 460 41 22
5 57 25 77 43 20 19 49 40 65 48 50 25 184 65 375 112 285 69 382 108 559 226
118 80 295 255 372 369 36 54 70 121 93 185 41 115 104 353 104 393 0 15 -14
47 -30 72 -42 62 -60 130 -60 219 0 81 15 124 43 129 9 2 43 -12 74 -31 112
-68 178 -68 273 -3 38 26 62 34 116 39 53 5 90 17 171 57 132 65 151 90 234
310 73 196 116 284 198 407 105 157 318 365 388 379 26 5 34 1 67 -37 48 -56
96 -154 96 -195 0 -23 -9 -40 -31 -61 -17 -15 -56 -64 -88 -108 -32 -44 -90
-120 -129 -169 -67 -83 -106 -146 -150 -241 -11 -22 -26 -46 -35 -54 -19 -15
-117 -194 -117 -213 0 -7 -13 -32 -29 -55 -16 -24 -43 -89 -60 -145 -18 -57
-38 -114 -46 -128 -8 -14 -23 -41 -33 -60 -52 -95 -83 -343 -83 -665 -1 -320
22 -479 77 -552 20 -26 24 -43 24 -98 0 -78 9 -98 63 -145 42 -38 48 -61 33
-130 -9 -44 20 -91 82 -133 23 -16 42 -34 42 -40 0 -65 52 -140 116 -168 49
-22 57 -31 72 -84 15 -52 66 -101 128 -123 29 -11 53 -27 60 -40 30 -61 128
-122 194 -122 32 0 43 -7 79 -50 54 -64 102 -81 162 -57 l42 16 61 -48 c103
-81 132 -88 201 -46 22 14 47 25 55 25 8 0 33 -19 56 -41 36 -35 49 -42 82
-42 24 0 55 9 75 22 46 28 74 27 122 -6 51 -36 103 -36 207 0 70 25 81 26 122
15 54 -14 99 -5 207 42 53 24 82 30 134 30 56 0 86 8 181 45 62 25 119 45 126
45 7 0 76 31 153 69 77 39 162 78 189 87 27 9 72 37 101 64 68 62 130 102 187
124 47 17 88 56 88 82 0 8 24 29 53 48 28 19 66 50 84 70 17 20 41 36 53 36
28 0 70 22 97 52 19 20 70 120 86 170 4 10 19 20 34 23 82 17 101 38 183 203
13 25 37 53 60 67 45 28 65 56 75 103 4 18 20 45 37 61 24 23 32 39 36 80 4
45 9 55 45 83 48 39 84 111 95 197 7 48 15 69 39 94 52 55 63 79 63 132 0 36
9 68 31 114 26 54 33 82 40 170 5 74 14 121 29 155 19 42 22 60 16 130 -3 45
-8 95 -12 112 -5 26 0 38 26 68 38 43 37 55 -10 172 -36 90 -36 97 -9 140 15
25 19 42 14 71 -8 45 -25 93 -34 93 -3 0 -19 11 -35 24 l-30 23 22 37 c12 20
22 48 22 61 0 31 -35 111 -64 145 -14 17 -25 47 -29 78 -6 55 -43 136 -87 192
-15 19 -33 51 -39 71 -7 21 -38 68 -71 105 -32 38 -75 93 -95 121 -35 52 -128
136 -172 156 -12 5 -33 27 -47 47 -24 37 -128 100 -164 100 -8 0 -44 21 -80
46 -69 50 -146 84 -188 84 -13 0 -59 20 -101 45 -42 24 -99 49 -127 54 -79 15
-155 30 -226 46 -92 21 -336 31 -394 16 -25 -6 -87 -14 -138 -17 -51 -4 -109
-13 -128 -21 -19 -8 -70 -19 -113 -24 -146 -18 -528 -156 -692 -249 -38 -22
-108 -58 -155 -81 -47 -22 -99 -51 -117 -65 -18 -14 -49 -32 -69 -40 -31 -13
-39 -13 -66 1 -17 8 -33 15 -35 15 -14 0 171 -320 295 -508 65 -100 77 -113
96 -107 11 4 38 9 58 12 34 5 37 8 32 28 -5 20 2 29 43 54 26 17 73 43 103 57
30 15 86 42 125 62 55 28 81 35 128 36 64 1 70 -4 82 -58 5 -23 8 -27 16 -15
12 19 11 96 -1 104 -17 11 -11 31 14 43 13 6 64 20 114 33 126 31 127 30 119
-125 -3 -66 -2 -115 2 -110 5 5 18 65 30 133 11 69 26 130 33 138 28 27 184
43 206 21 8 -8 12 -52 12 -134 l0 -122 40 19 c22 11 46 19 53 18 29 -3 40 6
123 102 86 99 88 100 123 94 42 -8 158 -59 181 -80 10 -9 42 -22 73 -30 94
-24 274 -161 328 -248 21 -36 18 -45 -48 -125 -23 -30 -43 -58 -43 -64 0 -17
19 2 61 62 23 33 50 62 61 66 28 8 72 -37 109 -111 16 -33 43 -76 59 -95 29
-35 60 -128 60 -182 0 -15 9 -51 21 -80 17 -44 20 -66 15 -123 -8 -90 -8 -100
-1 -165 8 -62 -16 -222 -36 -246 -12 -14 -14 -14 -26 2 -12 16 -23 13 -165
-48 -197 -84 -220 -92 -274 -83 -39 5 -44 4 -44 -13 0 -27 -20 -41 -74 -51
-26 -5 -53 -14 -59 -20 -16 -16 -42 -14 -57 4 -14 17 -46 20 -55 4 -11 -17 16
-69 35 -69 10 0 20 -6 23 -12 3 -9 14 -4 33 14 36 34 99 61 189 83 69 16 72
16 193 -9 141 -29 190 -49 198 -81 7 -27 -35 -148 -68 -200 -28 -43 -56 -52
-106 -32 -44 18 -112 37 -112 32 0 -2 27 -18 61 -36 106 -57 111 -94 27 -219
-24 -35 -47 -70 -53 -79 -78 -120 -112 -166 -163 -219 -48 -49 -66 -62 -90
-62 -30 0 -31 -1 -25 -35 5 -33 2 -39 -73 -110 -43 -41 -83 -75 -87 -75 -5 0
-36 -26 -70 -59 -89 -84 -155 -131 -183 -131 -16 0 -35 -11 -50 -30 -29 -34
-149 -111 -214 -136 -25 -10 -76 -35 -115 -55 -126 -68 -601 -167 -689 -145
-35 9 -34 41 5 117 16 34 26 58 21 55 -5 -3 -26 -40 -47 -82 -21 -41 -44 -78
-52 -81 -19 -7 -225 14 -257 27 -14 5 -27 17 -30 28 -5 16 -14 18 -64 14 -71
-5 -138 23 -148 63 -4 16 -13 25 -25 25 -24 0 -112 43 -156 77 -54 39 -46 63
59 194 132 164 262 312 310 353 54 47 89 48 117 3 45 -73 62 -81 169 -83 53
-1 113 -5 134 -9 29 -6 42 -3 67 16 22 16 49 24 91 27 33 2 60 9 60 14 0 6
-16 7 -40 3 -33 -6 -40 -4 -40 9 0 17 55 56 78 56 17 0 112 -100 112 -118 0
-4 18 -6 40 -4 40 4 42 6 52 62 2 8 -3 30 -11 48 -8 18 -11 35 -8 38 10 10 88
25 98 18 7 -4 8 -28 4 -64 -5 -40 -3 -65 7 -81 7 -13 14 -26 15 -28 1 -1 27 9
57 24 47 23 63 26 102 20 45 -6 47 -5 99 44 59 56 92 64 124 32 19 -19 19 -18
24 8 4 19 18 32 52 49 57 28 69 28 88 -1 15 -20 15 -19 2 15 -12 31 -13 38 0
48 18 15 42 8 143 -47 106 -58 107 -38 1 24 -85 49 -99 65 -82 92 6 9 18 42
27 74 14 49 22 59 56 77 21 11 49 20 61 20 l21 0 -22 18 c-23 18 -23 19 -6 70
10 28 30 70 46 93 27 40 27 45 14 71 -12 23 -21 28 -54 28 -39 0 -70 20 -70
44 0 22 28 39 54 34 16 -3 27 0 30 9 12 29 6 43 -17 43 -40 0 -47 18 -47 118
l0 93 43 -5 c38 -6 46 -3 81 29 51 46 28 56 -47 21 -29 -14 -61 -26 -69 -26
-17 0 -36 19 -53 53 -5 11 -25 25 -42 29 -43 11 -42 33 1 90 30 39 34 52 34
102 l-1 58 -24 -24 c-17 -18 -27 -42 -33 -88 -10 -73 -19 -85 -55 -76 -23 6
-26 10 -20 36 4 18 0 40 -10 60 -20 38 -14 57 20 70 33 12 43 39 22 55 -22 16
-21 25 1 41 16 12 16 14 0 30 -15 15 -19 15 -59 -12 -49 -34 -58 -50 -30 -59
27 -8 33 -31 13 -54 -16 -20 -19 -20 -72 -6 -30 8 -93 19 -139 25 -90 10 -106
6 -152 -37 -24 -22 -28 -23 -43 -8 -22 23 -21 30 17 72 49 55 60 97 16 57 -16
-14 -23 -15 -50 -4 -17 7 -37 24 -46 37 -19 29 -25 29 -71 -2 -20 -14 -44 -25
-53 -25 -19 0 -49 31 -49 51 1 24 100 150 135 170 31 19 51 46 41 57 -9 8 -66
-40 -81 -68 -28 -53 -93 -88 -111 -59 -3 6 -7 118 -7 248 l1 236 -9 -204 c-15
-330 -23 -349 -103 -236 -26 36 -49 65 -52 65 -10 0 102 -153 130 -176 20 -18
27 -30 23 -47 -5 -20 3 -26 74 -57 91 -40 118 -64 151 -135 43 -96 22 -262
-42 -320 -22 -20 -36 -4 -21 24 6 10 15 51 21 90 26 166 -39 264 -212 320 -21
7 -49 26 -62 43 l-24 31 -15 -29 c-8 -16 -27 -67 -42 -114 -15 -47 -34 -93
-43 -102 -8 -10 -40 -24 -71 -33 -31 -8 -71 -22 -90 -31 l-34 -15 27 -28 c41
-42 34 -58 -39 -92 -78 -37 -104 -35 -119 8 -6 18 -28 48 -50 68 -34 30 -38
39 -33 68 3 17 8 40 12 50 6 14 1 17 -34 17 -33 0 -41 4 -41 18 0 34 55 73
132 94 90 24 205 78 236 111 23 24 23 26 7 51 -15 23 -19 24 -29 11 -7 -9 -38
-20 -76 -25 -127 -18 -232 -65 -315 -140 -55 -50 -85 -57 -85 -19 0 22 -12 24
-41 6 -17 -10 -22 -9 -37 10 -9 12 -34 28 -56 37 -58 24 -166 105 -166 124 0
22 46 72 66 72 11 0 8 13 -15 58 -33 65 -86 191 -226 537 -124 304 -184 438
-246 546 -27 48 -49 98 -49 112 0 28 34 57 85 74 32 10 31 7 54 161 19 124 58
179 137 187 22 2 40 4 41 4 2 1 -13 21 -32 46 -38 50 -59 107 -53 145 7 55
109 90 323 110 66 6 145 18 175 26 31 9 166 74 300 145 420 222 777 399 843
416 74 19 293 13 447 -11 132 -22 423 -40 492 -32 101 13 188 92 188 171 0 71
-42 96 -395 230 -126 48 -338 129 -471 181 -245 95 -304 113 -361 114 -18 0
-102 -22 -188 -50 -175 -56 -344 -91 -545 -114 -141 -16 -324 -59 -544 -126
-143 -45 -171 -48 -184 -22 -5 9 -12 62 -16 118 -7 115 -34 230 -71 306 -42
84 -137 210 -191 251 -51 39 -211 123 -219 115 -3 -2 23 -27 58 -55 99 -79
217 -194 217 -210 0 -10 -6 -12 -22 -8 -18 6 -20 4 -13 -11 4 -11 10 -43 13
-71 4 -44 2 -53 -12 -53 -10 0 -16 9 -16 24 0 34 -11 38 -46 15 -39 -25 -47
-24 -42 6 3 14 3 25 1 25 -2 0 -19 -11 -37 -25 -39 -30 -54 -31 -72 -7 -20 26
-17 2 11 -85 27 -86 77 -173 99 -173 8 0 24 16 36 35 32 52 79 88 104 80 12
-4 42 -6 68 -6 45 2 49 0 78 -40 16 -23 30 -50 30 -60 0 -10 -20 -41 -45 -69
-32 -36 -45 -59 -45 -80 0 -46 -31 -70 -88 -70 l-49 0 -54 80 c-29 44 -57 80
-61 80 -12 0 32 -142 59 -190 23 -40 24 -49 14 -86 -6 -23 -22 -53 -36 -67
-48 -48 -67 -45 -214 30 -118 60 -146 79 -233 162 -54 51 -98 101 -98 111 0 9
14 37 32 61 70 97 86 210 48 347 -23 83 -25 113 -7 131 10 10 9 14 -5 22 -25
14 -22 28 7 35 33 8 32 22 -2 30 -100 22 -102 24 -171 105 -37 44 -76 82 -87
85 -11 2 -71 -14 -134 -36 -121 -43 -133 -43 -145 6 -5 17 0 36 14 58 11 19
20 36 20 38 0 3 -27 8 -60 10 -49 3 -84 16 -186 67 -122 61 -131 67 -238 177
-79 81 -117 114 -134 114 -13 0 -33 5 -44 11 -18 9 -24 8 -35 -7 -10 -14 -16
-15 -25 -6 -9 9 -8 17 2 37 12 22 11 27 -6 46 -30 33 -173 97 -248 110 -79 15
-108 34 -137 92 -35 70 -69 108 -113 126 -23 10 -56 31 -75 46 -29 25 -33 33
-28 65 8 61 113 226 196 308 41 40 87 93 102 118 32 50 46 53 138 30 89 -23
169 -28 268 -17 96 10 139 25 156 52 21 34 -2 63 -106 135 -56 39 -149 109
-205 155 -138 111 -140 113 -237 139 -84 23 -124 48 -110 71 5 7 24 10 56 6
29 -4 49 -2 49 4 0 18 -94 70 -165 91 -100 30 -143 54 -167 94 -13 23 -27 34
-43 34 -12 0 -37 11 -56 25 -47 33 -104 64 -152 81 -93 33 -370 68 -388 49z
m-448 -225 c25 -14 52 -67 44 -88 -5 -13 -11 -10 -38 15 -18 17 -40 33 -49 36
-18 6 -24 28 -11 40 9 10 31 9 54 -3z m142 -61 c13 -20 -9 -79 -29 -79 -17 0
-22 9 -30 59 -7 42 -6 43 21 39 15 -2 33 -10 38 -19z m382 -79 c3 -6 -1 -13
-10 -16 -19 -8 -30 0 -20 15 8 14 22 14 30 1z m-692 -594 c20 -54 14 -76 -13
-51 -24 22 -44 71 -36 91 10 26 30 10 49 -40z m1112 -406 c37 -23 56 -64 45
-95 -4 -11 -20 -31 -35 -45 -25 -24 -27 -24 -40 -7 -15 21 -39 143 -30 157 9
15 24 12 60 -10z m188 -97 c15 -14 -18 -33 -59 -33 -45 0 -67 16 -43 31 16 10
93 12 102 2z m72 -93 c0 -36 -29 -33 -33 3 -3 23 0 28 15 25 12 -2 18 -12 18
-28z m-99 -494 c34 -35 94 -56 157 -56 22 0 37 -6 41 -15 4 -11 23 -15 78 -15
102 0 142 -22 230 -126 38 -46 113 -118 164 -160 l94 -75 0 -116 0 -117 150
-151 c83 -83 150 -156 150 -163 0 -16 -15 -23 -194 -86 l-158 -56 -54 25
c-106 50 -145 46 -210 -21 -24 -24 -48 -44 -54 -44 -20 0 -24 33 -7 62 15 25
15 30 1 35 -8 3 -27 3 -42 0 -43 -9 -60 7 -33 29 25 22 27 40 6 48 -17 6 -20
42 -5 51 6 3 10 16 10 27 l0 21 -23 -21 c-28 -26 -38 -27 -94 -6 -34 13 -43
22 -43 41 0 32 -17 63 -35 63 -7 0 -17 9 -20 20 -3 11 -15 20 -25 20 -12 0
-22 9 -25 23 -4 12 -16 27 -28 32 -17 8 -23 20 -25 53 -3 35 -7 42 -23 42 -12
0 -19 5 -17 13 6 17 39 21 49 5 6 -9 9 -6 9 11 0 13 -47 115 -105 226 -58 112
-105 214 -105 227 0 14 11 35 25 48 15 14 28 40 32 63 13 81 73 101 129 43z
m821 -116 c52 -22 117 -53 144 -70 27 -16 64 -36 84 -44 43 -18 45 -40 5 -61
-45 -23 -70 -20 -70 10 0 28 -13 31 -50 10 -49 -28 -67 -19 -161 73 -132 130
-119 152 48 82z m578 -345 c26 -25 33 -55 14 -55 -6 0 -24 13 -40 29 -16 16
-29 34 -29 40 0 19 30 12 55 -14z m-178 -172 c16 -16 61 -73 100 -128 38 -55
127 -180 197 -278 69 -99 126 -185 126 -193 0 -30 -36 -11 -109 60 -83 80
-108 96 -194 121 -31 9 -63 23 -71 30 -17 18 -76 157 -76 182 0 10 -14 47 -31
83 -48 101 -49 105 -33 129 21 29 56 26 91 -6z m371 -85 c19 -19 14 -42 -15
-70 -50 -46 -113 -49 -113 -5 1 57 93 110 128 75z m-2412 -187 c90 -42 132
-73 279 -206 72 -65 159 -137 195 -160 36 -23 115 -86 175 -140 61 -53 134
-113 162 -133 29 -21 55 -43 58 -50 13 -34 -248 -244 -483 -389 -222 -137
-804 -413 -872 -413 -15 0 -17 15 -17 158 1 181 -11 237 -73 343 -64 109 -176
193 -386 290 -75 35 -114 58 -114 68 0 9 13 39 30 67 23 40 47 63 112 106 46
30 119 90 163 132 44 43 96 90 115 104 19 14 76 65 125 114 l90 87 105 15 c58
9 128 22 155 30 64 19 102 14 181 -23z m2225 -301 c20 -6 43 -18 50 -27 12
-14 9 -19 -21 -42 -19 -14 -79 -63 -134 -109 -56 -46 -117 -92 -137 -102 -19
-10 -132 -49 -250 -86 -258 -81 -277 -89 -281 -123 -2 -18 -17 -35 -53 -58
-58 -38 -91 -42 -100 -12 -7 22 -24 22 -84 3 -40 -12 -20 17 40 58 77 54 375
201 499 248 148 55 98 50 -84 -10 -84 -27 -160 -50 -170 -50 -55 0 50 76 169
121 85 33 186 93 225 134 l23 25 -33 0 c-43 0 -29 16 25 29 55 12 272 13 316
1z m445 -101 c9 -16 -18 -30 -33 -17 -7 6 -10 14 -7 19 7 13 31 11 40 -2z
m-51 -183 c24 -10 47 -34 76 -78 59 -91 163 -304 155 -317 -10 -15 -48 -13
-141 7 -89 20 -91 22 -120 127 -9 33 -34 97 -56 142 -21 45 -39 89 -39 98 0
32 69 44 125 21z m-4614 -52 c10 -13 10 -17 -2 -25 -24 -15 -49 -10 -49 9 0
35 28 43 51 16z m-141 -29 c16 -19 -3 -45 -32 -45 -27 0 -35 30 -13 46 24 18
30 17 45 -1z m4026 4 c10 -17 -13 -36 -27 -22 -12 12 -4 33 11 33 5 0 12 -5
16 -11z m-2899 -34 c28 -8 56 -22 63 -30 10 -12 8 -16 -15 -25 -14 -5 -41 -10
-60 -10 -38 0 -53 -17 -104 -117 -37 -74 -37 -80 -10 -109 13 -14 19 -29 15
-40 -5 -13 -18 -16 -76 -12 -102 5 -108 14 -86 120 21 100 55 179 92 213 32
30 101 34 181 10z m2753 -25 c-29 -19 -121 -50 -148 -50 -24 0 -25 1 -10 17
24 24 151 64 163 52 6 -6 5 -13 -5 -19z m193 23 c9 -9 -33 -53 -50 -53 -18 0
-16 20 4 42 17 19 35 23 46 11z m-4208 -99 c-11 -63 -42 -53 -71 22 -19 51
-13 65 16 39 20 -18 21 -18 38 6 l17 24 3 -29 c2 -16 1 -44 -3 -62z m3879 -84
c27 -28 -91 -63 -133 -40 -29 15 -22 32 20 47 37 14 96 10 113 -7z m-974 -178
c0 -38 -92 -105 -282 -206 -186 -99 -468 -216 -521 -216 -39 0 2 25 118 70
217 85 417 195 583 320 68 52 102 63 102 32z m2234 -30 c24 -11 55 -35 69 -53
47 -63 230 -393 249 -450 11 -31 28 -65 39 -75 35 -32 24 -51 -58 -99 -43 -25
-85 -44 -93 -43 -8 2 -21 17 -29 33 -8 17 -80 147 -161 290 -198 350 -205 365
-175 365 9 0 30 -9 46 -21 37 -26 36 -14 -1 31 -17 19 -30 38 -30 44 0 14 94
-1 144 -22z m-1344 -46 c0 -8 -31 -103 -69 -212 -37 -110 -90 -273 -116 -363
-27 -89 -58 -177 -69 -194 -12 -17 -43 -44 -71 -60 -62 -36 -98 -69 -138 -127
-40 -58 -42 -60 -109 -60 -69 0 -88 7 -88 30 0 22 12 31 54 39 30 7 30 7 -24
27 -55 20 -55 20 -53 60 2 59 27 112 58 124 15 6 25 17 25 30 0 28 -47 243
-67 307 -16 50 -16 54 2 73 63 69 574 340 643 340 12 0 22 -6 22 -14z m-190
-26 c0 -5 -4 -10 -10 -10 -5 0 -10 5 -10 10 0 6 5 10 10 10 6 0 10 -4 10 -10z
m-3080 -97 c97 -29 159 -58 166 -78 4 -9 16 -12 38 -8 37 6 76 -10 76 -31 0
-8 -10 -21 -23 -29 -13 -8 -31 -36 -41 -61 -19 -49 -53 -69 -80 -47 -10 8 -16
5 -25 -15 -14 -31 -31 -27 -49 9 -18 36 -27 34 -57 -14 -15 -22 -31 -39 -38
-36 -15 4 -109 192 -133 264 -15 44 -15 54 -4 68 16 20 45 16 170 -22z m2145
-84 c0 -7 -8 -15 -17 -17 -18 -3 -25 18 -11 32 10 10 28 1 28 -15z m225 -84
c0 -7 -16 -39 -35 -70 -19 -32 -42 -79 -51 -104 -8 -25 -22 -61 -30 -79 -8
-18 -14 -41 -14 -50 0 -20 -33 -54 -99 -101 -43 -30 -91 -41 -91 -21 0 6 -4
10 -10 10 -9 0 -218 -171 -377 -309 -87 -74 -70 -79 78 -21 56 21 106 37 111
34 13 -8 9 -44 -4 -48 -31 -8 -152 -48 -254 -84 -100 -35 -115 -44 -155 -88
-186 -209 -449 -474 -470 -474 -43 0 -12 50 121 195 113 123 133 152 170 247
70 176 108 238 194 323 137 135 572 489 738 601 84 56 178 77 178 39z m150
-32 c0 -12 -33 -43 -47 -43 -13 0 -18 31 -6 43 8 9 53 9 53 0z m-1110 -92 c0
-11 -101 -74 -143 -90 -14 -6 -29 -7 -31 -2 -8 12 21 36 85 71 54 30 89 38 89
21z m-1087 -62 c22 -6 36 -15 34 -22 -8 -23 -217 -2 -217 22 0 4 3 11 8 15 9
10 123 0 175 -15z m244 -144 c5 -16 -38 -58 -49 -47 -14 14 9 64 29 60 9 -2
18 -8 20 -13z m-456 -26 c21 -7 54 -25 73 -41 73 -60 33 -112 -114 -147 -50
-13 -98 -20 -107 -17 -22 9 -12 60 28 147 35 76 44 80 120 58z m2243 -35 c30
-29 13 -65 -45 -95 -45 -23 -77 -22 -92 2 -16 25 16 67 66 90 51 23 52 23 71
3z m-1679 -30 c27 -11 66 -76 54 -91 -9 -10 -18 -10 -47 3 -77 32 -112 94 -53
94 16 0 37 -3 46 -6z m70 -164 c3 -5 2 -10 -4 -10 -5 0 -13 5 -16 10 -3 6 -2
10 4 10 5 0 13 -4 16 -10z m1457 -52 c-6 -6 -15 -9 -18 -5 -4 3 -4 14 0 23 5
13 9 15 18 6 9 -9 9 -15 0 -24z m-1981 -58 c10 -6 30 -32 43 -58 31 -61 44
-72 147 -121 135 -63 251 -183 215 -219 -11 -12 -30 -10 -112 11 -55 14 -124
28 -154 32 -30 3 -70 11 -89 17 -28 9 -41 7 -83 -13 -41 -19 -55 -21 -86 -13
-22 6 -54 6 -81 1 -29 -6 -47 -5 -55 3 -6 6 -12 43 -14 83 -4 72 -4 72 46 147
70 106 110 139 170 140 18 0 42 -5 53 -10z m7023 -123 c11 -8 17 -19 15 -25
-11 -31 -136 -181 -152 -182 -16 0 -17 9 -15 73 1 39 -2 82 -6 94 -6 17 -3 24
21 37 35 19 113 21 137 3z m84 -18 c4 -21 -26 -33 -44 -18 -11 9 -12 15 -3 26
15 18 43 13 47 -8z m-5848 -138 c0 -21 -124 -181 -141 -181 -20 0 -6 31 49
109 34 48 64 81 75 81 9 0 17 -4 17 -9z m888 -34 c3 -32 -2 -43 -31 -72 -27
-27 -43 -35 -71 -35 -30 0 -37 4 -42 25 -8 32 24 96 56 113 14 6 39 11 55 10
27 -3 30 -7 33 -41z m-190 -113 c14 -10 22 -26 22 -44 0 -33 -16 -48 -33 -31
-6 6 -23 11 -37 11 -50 0 -95 58 -57 73 26 11 84 6 105 -9z m-138 -37 c8 -12
26 -32 39 -45 15 -13 21 -26 15 -31 -5 -5 -71 -11 -147 -13 -138 -5 -139 -4
-148 19 -12 31 -47 30 -59 -2 -9 -25 -54 -50 -70 -40 -13 8 -33 64 -27 78 3 8
33 24 67 37 52 19 65 21 85 10 14 -7 28 -9 37 -4 17 11 124 23 163 18 17 -2
37 -14 45 -27z m806 -48 c8 -14 -14 -29 -33 -22 -7 3 -13 11 -13 19 0 17 36
19 46 3z m-1556 -13 c0 -15 -25 -49 -101 -133 -69 -77 -195 -301 -178 -317 2
-2 52 -8 110 -13 88 -8 115 -15 154 -37 43 -26 47 -30 41 -59 -12 -61 -50 -75
-90 -32 -28 30 -63 32 -163 10 -102 -22 -196 -50 -321 -96 l-113 -43 -72 72
c-61 61 -70 75 -61 90 8 12 26 18 65 20 81 3 215 21 292 38 l67 16 39 66 c21
37 62 112 92 167 75 139 239 311 239 251z m-950 -16 c61 -8 68 -12 113 -61 26
-28 46 -56 44 -62 -5 -17 -60 -28 -172 -36 -90 -7 -113 -13 -225 -61 -69 -29
-142 -55 -162 -58 l-38 -5 0 39 c1 69 17 117 47 139 15 11 54 43 85 72 l57 52
93 -5 c51 -3 122 -9 158 -14z m-27 -299 c81 -19 109 -34 92 -49 -20 -18 -76
-34 -98 -29 -29 8 -109 76 -101 88 7 12 18 12 107 -10z m-105 -41 c72 -52 74
-79 7 -96 -57 -14 -114 -43 -152 -78 -52 -47 -88 -60 -107 -40 -24 24 0 70 79
151 61 62 99 89 126 92 3 1 24 -12 47 -29z m612 20 c0 -6 -12 -23 -27 -38 -24
-24 -28 -25 -31 -9 -2 10 4 27 14 38 18 20 44 26 44 9z m2033 -110 c46 -9 62
-23 53 -45 -9 -23 -144 -18 -160 7 -15 24 20 62 49 53 11 -4 37 -10 58 -15z
m-840 -48 c21 -19 22 -51 2 -99 -28 -66 -66 -95 -142 -108 -76 -12 -103 45
-64 132 21 44 49 67 109 89 40 14 67 10 95 -14z m364 -33 c14 -14 6 -39 -12
-39 -7 0 -18 7 -25 15 -22 26 12 49 37 24z m-59 -79 c4 -37 -160 -197 -250
-244 -57 -29 -69 -32 -79 -20 -16 19 8 54 62 91 24 15 50 41 59 57 9 16 29 34
45 39 43 14 95 55 106 84 12 33 53 29 57 -7z m-792 -25 c7 -18 -12 -45 -32
-45 -14 0 -54 38 -54 52 0 15 80 9 86 -7z m3918 -100 c132 -83 216 -148 216
-167 0 -15 -53 -8 -180 22 -69 16 -146 33 -172 36 -63 9 -76 25 -56 67 23 47
67 97 87 97 9 0 57 -25 105 -55z m-3628 -52 c-10 -10 -19 5 -10 18 6 11 8 11
12 0 2 -7 1 -15 -2 -18z m149 -138 c0 -36 -28 -46 -44 -16 -15 27 -3 53 23 49
16 -2 21 -10 21 -33z m3449 0 c200 -27 216 -31 216 -50 0 -16 -4 -17 -250 -56
-254 -40 -244 -39 -248 -12 -5 33 56 143 79 143 10 0 102 -11 203 -25z m-5146
-51 c2 -18 -4 -22 -35 -27 -21 -4 -57 -7 -80 -7 -36 0 -43 3 -43 20 0 27 20
35 92 35 56 0 63 -3 66 -21z m1647 -3 c0 -8 -8 -19 -17 -25 -22 -13 -41 3 -32
28 8 20 49 18 49 -3z m3840 -41 c15 -16 17 -31 12 -82 -10 -103 -57 -322 -73
-338 -12 -13 -45 -12 -272 3 -293 20 -347 28 -379 59 -28 26 -29 58 -4 129 30
88 42 107 72 119 23 10 581 127 615 129 6 1 19 -8 29 -19z m2468 -72 c9 -13 3
-37 -23 -102 -19 -47 -40 -86 -46 -86 -6 0 -18 9 -25 20 -10 15 -36 25 -92 35
-44 8 -83 18 -88 21 -25 15 -1 35 84 72 155 67 171 71 190 40z m-2297 -103
c34 -45 28 -70 -27 -113 -63 -48 -73 -44 -66 26 13 124 43 152 93 87z m234
-135 c48 -42 48 -60 1 -41 -37 16 -75 56 -66 70 10 16 16 13 65 -29z m-130
-10 c0 -21 -28 -40 -47 -33 -20 7 -15 30 9 47 25 18 38 13 38 -14z m75 -50 c3
-5 -1 -10 -9 -10 -9 0 -16 5 -16 10 0 6 4 10 9 10 6 0 13 -4 16 -10z m-1085
-24 c0 -16 -18 -31 -27 -22 -8 8 5 36 17 36 5 0 10 -6 10 -14z m409 -54 c53
-8 64 -28 24 -43 -56 -21 -362 -108 -405 -114 -72 -11 -93 26 -68 117 l11 37
147 4 c81 1 170 3 197 4 28 1 70 -2 94 -5z m229 -58 c5 -35 -165 -188 -258
-232 -46 -22 -68 -38 -57 -40 23 -5 21 -27 -5 -63 -41 -55 -279 -269 -299
-269 -25 0 -58 69 -59 120 0 19 -7 57 -15 84 -17 56 -20 188 -5 216 6 11 34
25 67 35 53 15 524 162 548 170 6 2 26 3 45 2 27 -2 36 -7 38 -23z m20 -71
c-4 -22 -48 -31 -48 -10 0 19 10 27 32 27 13 0 18 -6 16 -17z m-728 -79 c0 -8
-4 -12 -10 -9 -5 3 -10 10 -10 16 0 5 5 9 10 9 6 0 10 -7 10 -16z m727 -6 c5
-7 16 -29 23 -48 7 -19 31 -73 53 -119 32 -68 38 -90 34 -124 -9 -63 -57 -147
-106 -185 -24 -18 -51 -46 -60 -63 -25 -45 -300 -369 -314 -369 -33 0 -95 55
-120 106 -14 29 -43 74 -63 101 -44 57 -84 139 -84 172 0 18 55 80 222 247
216 218 224 225 302 258 92 39 100 41 113 24z m177 -63 c21 -39 21 -40 24 -12
2 16 9 27 18 27 25 0 27 -27 3 -59 -22 -29 -22 -31 -5 -50 23 -25 17 -55 -11
-59 -27 -4 -55 37 -80 114 -28 88 10 117 51 39z m-4564 -45 c0 -26 -30 -80
-45 -80 -26 0 -28 27 -5 60 21 29 50 41 50 20z m4950 -28 c0 -13 -12 -22 -22
-16 -10 6 -1 24 13 24 5 0 9 -4 9 -8z m41 -54 c1 -7 1 -22 0 -34 -1 -11 8 -32
19 -47 31 -39 23 -62 -20 -62 -25 0 -36 -5 -38 -17 -2 -12 3 -18 15 -18 29 0
44 -20 32 -42 -14 -26 -31 -22 -68 16 -32 33 -32 33 -17 71 9 21 16 52 16 69
0 17 7 42 16 54 16 24 43 30 45 10z m-320 -71 c-13 -13 -26 -3 -16 12 3 6 11
8 17 5 6 -4 6 -10 -1 -17z m784 -68 c4 -17 14 -33 23 -37 34 -14 122 -87 122
-100 0 -12 -8 -13 -37 -7 -21 4 -55 7 -75 7 -38 -2 -42 3 -38 42 1 10 -6 36
-15 57 -17 37 -15 69 4 69 5 0 12 -14 16 -31z m-290 -19 c53 -10 97 -50 110
-98 8 -32 -12 -64 -38 -60 -18 2 -23 11 -25 44 -3 45 2 41 -89 60 -36 7 -79
47 -68 64 4 7 18 9 34 5 14 -3 49 -10 76 -15z m-5965 -25 c0 -8 -7 -15 -15
-15 -26 0 -18 20 13 29 1 1 2 -6 2 -14z m-100 -45 c0 -12 -28 -25 -36 -17 -9
9 6 27 22 27 8 0 14 -5 14 -10z m-2620 -35 c0 -17 -58 -30 -90 -20 -17 5 -19
10 -9 21 16 19 99 19 99 -1z m2534 -25 c-5 -5 -58 -37 -119 -72 -60 -35 -130
-78 -154 -96 -34 -25 -47 -29 -57 -21 -26 22 -16 49 24 65 20 8 46 20 57 26
102 59 250 128 253 118 2 -6 0 -15 -4 -20z m-1268 -244 c7 -18 -20 -206 -44
-301 -14 -56 -21 -70 -36 -70 -14 0 -24 14 -37 55 -10 30 -19 63 -19 72 0 9
-16 38 -36 64 l-37 48 23 42 c28 53 48 72 97 90 50 17 82 17 89 0z m-1412 -28
c9 -12 16 -35 16 -50 0 -27 0 -28 -57 -23 -44 4 -62 10 -76 27 -22 26 -10 41
43 56 52 15 57 14 74 -10z m2584 -6 c5 -17 -27 -27 -41 -13 -9 9 -8 14 3 21
18 11 32 8 38 -8z m-1374 2 c22 -8 20 -30 -5 -65 -23 -32 -40 -36 -59 -14 -7
8 -21 15 -31 15 -23 0 -34 19 -20 33 12 12 67 35 88 36 6 1 18 -2 27 -5z
m-119 -99 c52 -26 57 -55 16 -95 -36 -36 -59 -38 -67 -5 -5 19 -15 26 -43 31
-60 10 -70 14 -76 35 -4 10 -3 28 0 40 6 19 13 21 69 17 33 -2 79 -13 101 -23z
m-1384 -31 c8 -47 -5 -68 -32 -53 -21 11 -25 49 -8 80 15 30 33 18 40 -27z
m817 24 c-7 -19 -38 -22 -38 -4 0 10 9 16 21 16 12 0 19 -5 17 -12z m678 -85
c11 -16 26 -48 36 -73 9 -25 23 -63 32 -85 18 -47 20 -86 6 -136 -23 -83 -70
-72 -70 15 0 70 -23 96 -86 96 -57 0 -66 19 -34 74 13 23 32 59 43 81 33 63
46 68 73 28z m-251 -7 c22 -16 14 -46 -13 -46 -29 0 -48 26 -32 45 15 18 21
19 45 1z m-1093 -28 c-15 -15 -26 -4 -18 18 5 13 9 15 18 6 9 -9 9 -15 0 -24z
m8 -447 c0 -12 -20 -25 -27 -18 -7 7 6 27 18 27 5 0 9 -4 9 -9z m174 -150 c16
-26 -38 -71 -84 -71 -31 0 -24 15 22 49 45 33 54 36 62 22z m-6 -124 c5 -41
-21 -73 -86 -107 -53 -28 -55 -30 -21 -24 57 9 58 -11 3 -69 -46 -48 -46 -49
-7 -15 111 97 127 92 121 -33 -3 -71 -2 -88 7 -75 7 9 19 16 28 16 18 0 57
-50 57 -73 0 -25 -89 -100 -111 -94 -22 6 -32 -13 -45 -79 l-7 -39 34 44 c19
25 62 69 97 98 53 45 66 52 82 43 38 -20 41 -42 14 -128 -30 -99 -55 -124
-145 -141 -35 -7 -76 -18 -92 -23 -33 -13 -107 -4 -118 13 -6 10 -14 10 -38
-1 -27 -11 -36 -10 -78 11 -64 33 -70 45 -54 121 18 89 43 140 98 200 26 29
36 43 22 31 -34 -31 -59 -30 -59 2 0 43 30 119 57 143 20 18 23 26 13 32 -9 5
-11 21 -7 49 6 50 22 71 51 71 11 0 48 13 81 29 74 37 99 36 103 -2z m-238
-30 c0 -48 -32 -132 -58 -155 -18 -16 -23 -26 -14 -29 51 -20 -62 -282 -140
-324 -32 -17 -118 45 -118 86 0 26 61 127 113 190 21 25 60 78 87 118 55 81
104 137 119 137 6 0 11 -10 11 -23z m508 -73 c23 -16 30 -58 12 -69 -6 -4 -22
-25 -36 -48 -32 -51 -51 -67 -80 -67 -30 0 -77 93 -72 141 3 31 6 33 38 34 20
1 45 7 55 13 28 16 57 15 83 -4z m408 -189 c8 -20 -13 -45 -38 -45 -24 0 -34
26 -18 45 16 19 49 19 56 0z m-1206 -18 c0 -23 -47 -77 -67 -77 -30 0 -14 80
19 93 31 13 48 7 48 -16z m866 -9 c37 -16 69 -22 126 -22 85 -1 99 -10 68 -48
-16 -20 -29 -23 -107 -26 -114 -4 -167 11 -171 51 -2 17 4 37 14 48 9 10 18
19 19 19 1 0 24 -10 51 -22z m-106 -2 c0 -18 -16 -29 -30 -21 -13 8 -1 35 16
35 8 0 14 -6 14 -14z m84 -190 c48 -20 51 -33 14 -56 -47 -28 -86 -27 -94 4
-7 29 11 66 32 66 8 0 30 -6 48 -14z m-114 -81 c0 -8 -4 -15 -10 -15 -5 0 -10
7 -10 15 0 8 5 15 10 15 6 0 10 -7 10 -15z"/>
<path d="M6725 6292 c-162 -81 -215 -119 -215 -153 0 -11 3 -19 6 -19 17 0
136 75 145 91 6 13 20 19 42 19 18 0 38 5 45 12 6 6 32 18 58 27 50 17 88 57
82 86 -2 14 -29 4 -163 -63z"/>
<path d="M6616 6096 c-60 -30 -112 -60 -117 -67 -15 -23 -10 -69 7 -76 10 -4
61 17 129 52 107 55 113 60 119 93 10 67 2 67 -138 -2z"/>
<path d="M6593 5793 c-28 -11 -8 -73 23 -73 17 0 27 49 13 66 -12 15 -16 16
-36 7z"/>
<path d="M3920 6205 c-13 -24 -22 -46 -20 -48 3 -2 21 13 41 35 32 34 34 40
20 48 -14 7 -22 0 -41 -35z"/>
<path d="M9123 2661 c-90 -44 -122 -66 -112 -75 4 -4 203 105 215 117 14 14
-4 7 -103 -42z"/>
<path d="M8310 8214 c0 -3 16 -24 35 -47 26 -30 46 -73 77 -170 44 -136 67
-182 68 -138 0 15 12 35 32 51 30 26 32 29 23 66 -9 36 -13 39 -48 42 -35 3
-39 7 -62 57 -30 68 -125 174 -125 139z"/>
<path d="M11281 5173 c-27 -34 -123 -179 -140 -210 -20 -39 -3 -25 26 20 15
23 54 79 87 125 32 45 56 85 54 88 -3 3 -15 -8 -27 -23z"/>
<path d="M9144 5078 c-42 -40 -71 -74 -64 -76 6 -2 37 8 69 22 63 28 124 35
115 14 -2 -7 -34 -30 -69 -51 -69 -40 -77 -51 -45 -60 17 -4 19 -11 13 -38 -7
-38 -10 -40 105 49 l83 64 -19 22 c-11 11 -25 31 -31 44 -6 12 -17 22 -24 22
-23 0 -37 22 -26 42 8 15 6 18 -11 18 -11 0 -53 -31 -96 -72z"/>
<path d="M10781 5009 c-38 -56 -36 -79 9 -79 33 0 38 16 19 52 -10 18 -8 24
11 38 17 13 19 18 8 27 -10 9 -20 0 -47 -38z"/>
<path d="M9967 5043 c-4 -3 -7 -46 -7 -95 0 -106 -10 -116 -70 -68 -22 17 -40
27 -40 20 0 -23 40 -89 71 -114 l32 -27 23 22 c22 21 24 30 24 123 0 127 -9
164 -33 139z"/>
<path d="M9272 4890 c-87 -59 -89 -62 -61 -116 29 -56 40 -61 76 -36 15 11 51
31 78 45 92 47 92 46 55 100 -40 60 -66 61 -148 7z"/>
<path d="M11078 4863 c-17 -20 -41 -63 -35 -63 3 0 16 18 31 40 28 42 29 52 4
23z"/>
<path d="M10642 4827 c-6 -7 -16 -26 -22 -42 l-11 -30 35 34 c20 19 36 39 36
43 0 13 -26 9 -38 -5z"/>
<path d="M10491 4812 c-14 -26 -14 -42 -1 -42 11 0 25 48 17 56 -3 3 -10 -3
-16 -14z"/>
<path d="M11004 4755 c-15 -20 -25 -37 -23 -39 2 -3 17 13 32 35 35 49 28 52
-9 4z"/>
<path d="M9394 4751 c-106 -38 -143 -71 -93 -84 18 -5 20 -11 14 -36 -11 -49
-7 -47 164 87 29 22 23 52 -11 51 -13 0 -46 -9 -74 -18z"/>
<path d="M9970 4744 c1 -5 15 -25 31 -44 l31 -35 -15 31 c-16 31 -47 64 -47
48z"/>
<path d="M9454 4641 c-99 -54 -139 -91 -99 -91 9 0 27 7 40 16 23 15 25 15 31
0 4 -11 -2 -26 -15 -40 -21 -22 -28 -46 -13 -46 4 1 47 24 96 53 103 60 121
84 58 73 -51 -8 -63 8 -22 29 16 8 30 20 30 25 0 19 -56 9 -106 -19z"/>
<path d="M11530 4640 c-8 -5 -12 -12 -9 -15 4 -3 12 1 19 10 14 17 11 19 -10
5z"/>
<path d="M10790 4488 c0 -54 -26 -138 -42 -138 -15 0 -78 -54 -78 -67 0 -21
14 -15 45 17 16 17 39 30 53 30 18 0 22 4 18 18 -4 11 12 53 38 105 36 71 41
85 24 76 -14 -8 -23 -8 -31 0 -21 21 -27 11 -27 -41z"/>
<path d="M9526 4506 c-65 -24 -106 -50 -106 -68 0 -4 8 -8 18 -8 28 0 43 -20
31 -42 -19 -35 -1 -31 58 14 32 25 73 53 91 64 23 13 32 25 30 39 -4 29 -41
29 -122 1z"/>
<path d="M10946 4431 c-9 -10 -37 -26 -61 -36 -25 -9 -45 -20 -45 -24 0 -19
15 -18 44 3 17 12 50 31 74 41 29 13 39 21 30 27 -19 11 -23 10 -42 -11z"/>
<path d="M11795 4412 c-22 -8 -83 -32 -135 -52 -120 -47 -262 -112 -256 -117
4 -5 380 147 425 172 34 19 17 17 -34 -3z"/>
<path d="M11890 4221 c-8 -5 -73 -25 -145 -45 -214 -59 -442 -131 -459 -145
-17 -14 -22 -41 -7 -41 5 0 33 11 62 24 30 12 179 65 332 115 152 51 277 95
277 97 0 7 -45 4 -60 -5z"/>
<path d="M9892 4210 c-13 -6 -30 -26 -38 -46 -14 -32 -13 -38 1 -60 33 -51
115 -10 115 59 0 52 -25 68 -78 47z"/>
<path d="M11190 4185 c-12 -33 -1 -51 22 -33 13 11 13 17 2 38 l-13 24 -11
-29z"/>
<path d="M11161 4057 c-14 -6 -27 -18 -29 -26 -4 -11 3 -13 28 -7 35 6 60 22
60 37 0 13 -31 11 -59 -4z"/>
<path d="M11207 3963 c-12 -11 -8 -23 8 -23 8 0 15 7 15 15 0 16 -12 20 -23 8z"/>
<path d="M11320 3835 c-17 -20 -12 -24 28 -18 26 4 30 8 21 19 -15 18 -33 18
-49 -1z"/>
<path d="M11300 3561 c0 -24 6 -27 65 -34 l40 -5 -35 15 c-19 8 -43 22 -52 30
-17 15 -18 14 -18 -6z"/>
<path d="M11250 3227 c0 -3 24 -13 53 -23 28 -9 96 -34 150 -55 53 -22 108
-39 122 -39 26 0 42 17 28 31 -13 13 -353 96 -353 86z"/>
<path d="M1080 2194 c-39 -35 -57 -80 -48 -121 3 -12 9 -4 18 25 7 24 31 63
53 88 47 53 33 58 -23 8z"/>
<path d="M1106 1911 c-22 -25 -17 -56 9 -56 15 0 21 8 23 29 5 39 -10 51 -32
27z"/>
<path d="M1030 1795 c0 -9 8 -32 17 -53 l17 -37 4 32 c3 33 -12 73 -28 73 -6
0 -10 -7 -10 -15z"/>
</g>
</svg>
